<svg xmlns="http://www.w3.org/2000/svg" version="1.1" xmlns:xlink="http://www.w3.org/1999/xlink" xmlns:svgjs="http://svgjs.com/svgjs" width="54" height="54"><svg width="54" height="54" viewBox="0 0 54 54" fill="none" xmlns="http://www.w3.org/2000/svg">
<path fill-rule="evenodd" clip-rule="evenodd" d="M45.1908 38.0978C46.1919 28.4753 46.192 18.7748 45.1908 9.15221C44.8337 5.72085 40.8774 3.98269 38.1087 6.04081L28.8755 12.9042C26.062 14.9956 22.6496 16.125 19.1439 16.125H10.5282C8.97487 16.125 7.71567 17.3842 7.71567 18.9375V28.3125C7.71567 29.8658 8.97486 31.125 10.5282 31.125H11.9328L10.0307 38.2236C9.81879 39.0146 10.2054 39.8436 10.9476 40.1897L19.2301 44.052C19.6822 44.2629 20.2044 44.2629 20.6565 44.0521C21.1086 43.8413 21.4442 43.4412 21.5733 42.9594L24.4144 32.3564C24.4446 32.2438 24.4626 32.1308 24.4693 32.0188C26.0386 32.5608 27.526 33.3426 28.8755 34.3458L38.1087 41.2092C40.8774 43.2673 44.8337 41.5292 45.1908 38.0978ZM41.8339 9.50148C42.8109 18.8918 42.8109 28.3582 41.8339 37.7486C41.7476 38.5779 40.7913 38.9981 40.1221 38.5006L30.8889 31.6372C27.4933 29.1131 23.3749 27.75 19.1439 27.75L11.0907 27.75L11.0907 19.5H19.1439C23.3749 19.5 27.4933 18.137 30.8889 15.6129L40.1221 8.74944C40.7913 8.25199 41.7476 8.6721 41.8339 9.50148ZM21.2313 31.2591C20.5419 31.1702 19.8447 31.125 19.1439 31.125H15.4269L13.6572 37.7294L18.8338 40.1433L21.1544 31.4829C21.1751 31.4055 21.2009 31.3308 21.2313 31.2591Z" fill="#1F2937"></path>
</svg><style>@media (prefers-color-scheme: light) { :root { filter: none; } }
@media (prefers-color-scheme: dark) { :root { filter: invert(100%); } }
</style></svg>