<svg width="578" height="63" viewBox="0 0 578 63" fill="none" xmlns="http://www.w3.org/2000/svg">
<path d="M84.6875 50.4062C86.2708 50.4062 87.75 50.1146 89.125 49.5312C90.5208 48.9271 91.6667 48.0417 92.5625 46.875C93.4792 45.6875 94 44.2396 94.125 42.5312H97.6875C97.5833 44.6771 96.9271 46.5938 95.7188 48.2812C94.5312 49.9479 92.9688 51.2604 91.0312 52.2188C89.1146 53.1562 87 53.625 84.6875 53.625C82.3333 53.625 80.25 53.1979 78.4375 52.3438C76.6458 51.4896 75.1458 50.3021 73.9375 48.7812C72.7292 47.2396 71.8125 45.4479 71.1875 43.4062C70.5833 41.3438 70.2812 39.125 70.2812 36.75V35.4375C70.2812 33.0625 70.5833 30.8542 71.1875 28.8125C71.8125 26.75 72.7292 24.9583 73.9375 23.4375C75.1458 21.8958 76.6458 20.6979 78.4375 19.8438C80.2292 18.9896 82.3021 18.5625 84.6562 18.5625C87.0729 18.5625 89.2396 19.0521 91.1562 20.0312C93.0938 21.0104 94.6354 22.3958 95.7812 24.1875C96.9479 25.9792 97.5833 28.1042 97.6875 30.5625H94.125C94.0208 28.75 93.5417 27.1875 92.6875 25.875C91.8333 24.5625 90.7083 23.5521 89.3125 22.8438C87.9167 22.1354 86.3646 21.7812 84.6562 21.7812C82.7396 21.7812 81.1042 22.1562 79.75 22.9062C78.3958 23.6354 77.2917 24.6458 76.4375 25.9375C75.6042 27.2083 74.9896 28.6667 74.5938 30.3125C74.1979 31.9375 74 33.6458 74 35.4375V36.75C74 38.5625 74.1875 40.2917 74.5625 41.9375C74.9583 43.5625 75.5729 45.0104 76.4062 46.2812C77.2604 47.5521 78.3646 48.5625 79.7188 49.3125C81.0938 50.0417 82.75 50.4062 84.6875 50.4062ZM125.781 46.9375V29.5C125.781 27.8958 125.448 26.5104 124.781 25.3438C124.115 24.1771 123.135 23.2812 121.844 22.6562C120.552 22.0312 118.958 21.7188 117.062 21.7188C115.312 21.7188 113.75 22.0312 112.375 22.6562C111.021 23.2604 109.948 24.0833 109.156 25.125C108.385 26.1458 108 27.2812 108 28.5312L104.25 28.5C104.25 27.2292 104.562 26 105.188 24.8125C105.812 23.625 106.698 22.5625 107.844 21.625C108.99 20.6875 110.354 19.9479 111.938 19.4062C113.542 18.8438 115.302 18.5625 117.219 18.5625C119.635 18.5625 121.76 18.9688 123.594 19.7812C125.448 20.5938 126.896 21.8125 127.938 23.4375C128.979 25.0625 129.5 27.1042 129.5 29.5625V45.9062C129.5 47.0729 129.583 48.2812 129.75 49.5312C129.938 50.7812 130.198 51.8125 130.531 52.625V53H126.562C126.312 52.25 126.115 51.3125 125.969 50.1875C125.844 49.0417 125.781 47.9583 125.781 46.9375ZM126.656 33.3125L126.719 36.1875H119.375C117.458 36.1875 115.74 36.3646 114.219 36.7188C112.719 37.0521 111.448 37.5521 110.406 38.2188C109.365 38.8646 108.562 39.6458 108 40.5625C107.458 41.4792 107.188 42.5208 107.188 43.6875C107.188 44.8958 107.49 46 108.094 47C108.719 48 109.594 48.8021 110.719 49.4062C111.865 49.9896 113.219 50.2812 114.781 50.2812C116.865 50.2812 118.698 49.8958 120.281 49.125C121.885 48.3542 123.208 47.3438 124.25 46.0938C125.292 44.8438 125.99 43.4792 126.344 42L127.969 44.1562C127.698 45.1979 127.198 46.2708 126.469 47.375C125.76 48.4583 124.833 49.4792 123.688 50.4375C122.542 51.375 121.188 52.1458 119.625 52.75C118.083 53.3333 116.333 53.625 114.375 53.625C112.167 53.625 110.24 53.2083 108.594 52.375C106.969 51.5417 105.698 50.4062 104.781 48.9688C103.885 47.5104 103.438 45.8646 103.438 44.0312C103.438 42.3646 103.792 40.875 104.5 39.5625C105.208 38.2292 106.229 37.1042 107.562 36.1875C108.917 35.25 110.542 34.5417 112.438 34.0625C114.354 33.5625 116.5 33.3125 118.875 33.3125H126.656ZM143.688 5V53H139.969V5H143.688ZM158.062 5V53H154.344V5H158.062ZM177.906 53H169.594V16.0625C169.594 13.5208 170.083 11.3854 171.062 9.65625C172.042 7.90625 173.438 6.58333 175.25 5.6875C177.062 4.79167 179.198 4.34375 181.656 4.34375C182.469 4.34375 183.24 4.39583 183.969 4.5C184.719 4.60417 185.458 4.75 186.188 4.9375L186.031 11.2188C185.635 11.1146 185.198 11.0417 184.719 11C184.26 10.9583 183.75 10.9375 183.188 10.9375C182.062 10.9375 181.104 11.1354 180.312 11.5312C179.521 11.9271 178.917 12.5104 178.5 13.2812C178.104 14.0312 177.906 14.9583 177.906 16.0625V53ZM184.75 19.1875V25.125H164.5V19.1875H184.75ZM188.375 36.4375V35.7812C188.375 33.3021 188.729 31.0208 189.438 28.9375C190.146 26.8333 191.177 25.0104 192.531 23.4688C193.885 21.9271 195.542 20.7292 197.5 19.875C199.458 19 201.688 18.5625 204.188 18.5625C206.729 18.5625 208.979 19 210.938 19.875C212.917 20.7292 214.583 21.9271 215.938 23.4688C217.292 25.0104 218.323 26.8333 219.031 28.9375C219.74 31.0208 220.094 33.3021 220.094 35.7812V36.4375C220.094 38.8958 219.74 41.1771 219.031 43.2812C218.323 45.3646 217.292 47.1875 215.938 48.75C214.583 50.2917 212.927 51.4896 210.969 52.3438C209.01 53.1979 206.771 53.625 204.25 53.625C201.75 53.625 199.51 53.1979 197.531 52.3438C195.552 51.4896 193.885 50.2917 192.531 48.75C191.177 47.1875 190.146 45.3646 189.438 43.2812C188.729 41.1771 188.375 38.8958 188.375 36.4375ZM196.625 35.7812V36.4375C196.625 37.9167 196.771 39.3021 197.062 40.5938C197.354 41.8854 197.802 43.0208 198.406 44C199.01 44.9792 199.792 45.75 200.75 46.3125C201.729 46.8542 202.896 47.125 204.25 47.125C205.583 47.125 206.729 46.8542 207.688 46.3125C208.646 45.75 209.427 44.9792 210.031 44C210.656 43.0208 211.115 41.8854 211.406 40.5938C211.698 39.3021 211.844 37.9167 211.844 36.4375V35.7812C211.844 34.3229 211.698 32.9583 211.406 31.6875C211.115 30.3958 210.656 29.2604 210.031 28.2812C209.427 27.2812 208.635 26.5 207.656 25.9375C206.698 25.3542 205.542 25.0625 204.188 25.0625C202.854 25.0625 201.708 25.3542 200.75 25.9375C199.792 26.5 199.01 27.2812 198.406 28.2812C197.802 29.2604 197.354 30.3958 197.062 31.6875C196.771 32.9583 196.625 34.3229 196.625 35.7812ZM234.344 26.0938V53H226.094V19.1875H233.906L234.344 26.0938ZM244.625 18.9688L244.5 26.6562C244.042 26.5729 243.521 26.5104 242.938 26.4688C242.375 26.4271 241.844 26.4062 241.344 26.4062C240.073 26.4062 238.958 26.5833 238 26.9375C237.042 27.2708 236.24 27.7604 235.594 28.4062C234.969 29.0521 234.49 29.8438 234.156 30.7812C233.823 31.6979 233.635 32.7396 233.594 33.9062L231.812 33.6875C231.812 31.5417 232.031 29.5521 232.469 27.7188C232.906 25.8854 233.542 24.2812 234.375 22.9062C235.208 21.5312 236.25 20.4688 237.5 19.7188C238.771 18.9479 240.229 18.5625 241.875 18.5625C242.333 18.5625 242.823 18.6042 243.344 18.6875C243.885 18.75 244.312 18.8438 244.625 18.9688ZM253.875 26.1875V53H250.125V19.1875H253.719L253.875 26.1875ZM253.188 34L251.375 33.0625C251.5 31.0625 251.875 29.1875 252.5 27.4375C253.146 25.6875 254.042 24.1458 255.188 22.8125C256.333 21.4792 257.708 20.4375 259.312 19.6875C260.917 18.9375 262.74 18.5625 264.781 18.5625C266.427 18.5625 267.917 18.7917 269.25 19.25C270.604 19.6875 271.75 20.3854 272.688 21.3438C273.646 22.2812 274.385 23.5104 274.906 25.0312C275.427 26.5521 275.688 28.375 275.688 30.5V53H271.969V30.625C271.969 28.375 271.615 26.6146 270.906 25.3438C270.219 24.0729 269.25 23.1667 268 22.625C266.771 22.0833 265.344 21.8125 263.719 21.8125C261.802 21.8125 260.177 22.2083 258.844 23C257.531 23.7708 256.458 24.7812 255.625 26.0312C254.812 27.2604 254.208 28.5833 253.812 30C253.417 31.3958 253.208 32.7292 253.188 34ZM275.656 31.0625L273.156 31.125C273.26 29.4792 273.635 27.9062 274.281 26.4062C274.948 24.9062 275.854 23.5729 277 22.4062C278.146 21.2188 279.51 20.2812 281.094 19.5938C282.698 18.9062 284.5 18.5625 286.5 18.5625C288.25 18.5625 289.812 18.8021 291.188 19.2812C292.562 19.7396 293.719 20.4792 294.656 21.5C295.615 22.5 296.344 23.7812 296.844 25.3438C297.344 26.9062 297.594 28.7812 297.594 30.9688V53H293.844V30.9375C293.844 28.5417 293.49 26.6875 292.781 25.375C292.094 24.0417 291.135 23.1146 289.906 22.5938C288.677 22.0729 287.24 21.8125 285.594 21.8125C283.969 21.8333 282.542 22.1354 281.312 22.7188C280.083 23.2812 279.052 24.0312 278.219 24.9688C277.406 25.8854 276.781 26.875 276.344 27.9375C275.927 29 275.698 30.0417 275.656 31.0625ZM327.656 46.9375V29.5C327.656 27.8958 327.323 26.5104 326.656 25.3438C325.99 24.1771 325.01 23.2812 323.719 22.6562C322.427 22.0312 320.833 21.7188 318.938 21.7188C317.188 21.7188 315.625 22.0312 314.25 22.6562C312.896 23.2604 311.823 24.0833 311.031 25.125C310.26 26.1458 309.875 27.2812 309.875 28.5312L306.125 28.5C306.125 27.2292 306.438 26 307.062 24.8125C307.688 23.625 308.573 22.5625 309.719 21.625C310.865 20.6875 312.229 19.9479 313.812 19.4062C315.417 18.8438 317.177 18.5625 319.094 18.5625C321.51 18.5625 323.635 18.9688 325.469 19.7812C327.323 20.5938 328.771 21.8125 329.812 23.4375C330.854 25.0625 331.375 27.1042 331.375 29.5625V45.9062C331.375 47.0729 331.458 48.2812 331.625 49.5312C331.812 50.7812 332.073 51.8125 332.406 52.625V53H328.438C328.188 52.25 327.99 51.3125 327.844 50.1875C327.719 49.0417 327.656 47.9583 327.656 46.9375ZM328.531 33.3125L328.594 36.1875H321.25C319.333 36.1875 317.615 36.3646 316.094 36.7188C314.594 37.0521 313.323 37.5521 312.281 38.2188C311.24 38.8646 310.438 39.6458 309.875 40.5625C309.333 41.4792 309.062 42.5208 309.062 43.6875C309.062 44.8958 309.365 46 309.969 47C310.594 48 311.469 48.8021 312.594 49.4062C313.74 49.9896 315.094 50.2812 316.656 50.2812C318.74 50.2812 320.573 49.8958 322.156 49.125C323.76 48.3542 325.083 47.3438 326.125 46.0938C327.167 44.8438 327.865 43.4792 328.219 42L329.844 44.1562C329.573 45.1979 329.073 46.2708 328.344 47.375C327.635 48.4583 326.708 49.4792 325.562 50.4375C324.417 51.375 323.062 52.1458 321.5 52.75C319.958 53.3333 318.208 53.625 316.25 53.625C314.042 53.625 312.115 53.2083 310.469 52.375C308.844 51.5417 307.573 50.4062 306.656 48.9688C305.76 47.5104 305.312 45.8646 305.312 44.0312C305.312 42.3646 305.667 40.875 306.375 39.5625C307.083 38.2292 308.104 37.1042 309.438 36.1875C310.792 35.25 312.417 34.5417 314.312 34.0625C316.229 33.5625 318.375 33.3125 320.75 33.3125H328.531ZM345.562 19.1875V53H341.844V19.1875H345.562ZM341.188 9.40625C341.188 8.69792 341.406 8.10417 341.844 7.625C342.302 7.125 342.927 6.875 343.719 6.875C344.51 6.875 345.135 7.125 345.594 7.625C346.073 8.10417 346.312 8.69792 346.312 9.40625C346.312 10.0938 346.073 10.6875 345.594 11.1875C345.135 11.6667 344.51 11.9062 343.719 11.9062C342.927 11.9062 342.302 11.6667 341.844 11.1875C341.406 10.6875 341.188 10.0938 341.188 9.40625ZM359.5 26.4062V53H355.781V19.1875H359.344L359.5 26.4062ZM358.656 34L357 33.0625C357.125 31.0625 357.531 29.1875 358.219 27.4375C358.906 25.6875 359.833 24.1458 361 22.8125C362.188 21.4792 363.573 20.4375 365.156 19.6875C366.76 18.9375 368.531 18.5625 370.469 18.5625C372.156 18.5625 373.667 18.7917 375 19.25C376.333 19.7083 377.469 20.4375 378.406 21.4375C379.344 22.4375 380.052 23.7188 380.531 25.2812C381.031 26.8438 381.281 28.75 381.281 31V53H377.531V30.9688C377.531 28.6354 377.208 26.8125 376.562 25.5C375.917 24.1667 375 23.2188 373.812 22.6562C372.625 22.0938 371.219 21.8125 369.594 21.8125C367.802 21.8125 366.229 22.2083 364.875 23C363.542 23.7708 362.417 24.7812 361.5 26.0312C360.604 27.2604 359.917 28.5833 359.438 30C358.958 31.3958 358.698 32.7292 358.656 34ZM403.75 19.1875V22.25H386.812V19.1875H403.75ZM393.031 10.5H396.75V44.7812C396.75 46.3438 396.958 47.5208 397.375 48.3125C397.792 49.1042 398.333 49.6354 399 49.9062C399.667 50.1771 400.385 50.3125 401.156 50.3125C401.719 50.3125 402.26 50.2812 402.781 50.2188C403.302 50.1354 403.771 50.0521 404.188 49.9688L404.344 53.125C403.885 53.2708 403.292 53.3854 402.562 53.4688C401.833 53.5729 401.104 53.625 400.375 53.625C398.938 53.625 397.667 53.3646 396.562 52.8438C395.458 52.3021 394.594 51.3854 393.969 50.0938C393.344 48.7812 393.031 47 393.031 44.75V10.5ZM432.156 46.9375V29.5C432.156 27.8958 431.823 26.5104 431.156 25.3438C430.49 24.1771 429.51 23.2812 428.219 22.6562C426.927 22.0312 425.333 21.7188 423.438 21.7188C421.688 21.7188 420.125 22.0312 418.75 22.6562C417.396 23.2604 416.323 24.0833 415.531 25.125C414.76 26.1458 414.375 27.2812 414.375 28.5312L410.625 28.5C410.625 27.2292 410.938 26 411.562 24.8125C412.188 23.625 413.073 22.5625 414.219 21.625C415.365 20.6875 416.729 19.9479 418.312 19.4062C419.917 18.8438 421.677 18.5625 423.594 18.5625C426.01 18.5625 428.135 18.9688 429.969 19.7812C431.823 20.5938 433.271 21.8125 434.312 23.4375C435.354 25.0625 435.875 27.1042 435.875 29.5625V45.9062C435.875 47.0729 435.958 48.2812 436.125 49.5312C436.312 50.7812 436.573 51.8125 436.906 52.625V53H432.938C432.688 52.25 432.49 51.3125 432.344 50.1875C432.219 49.0417 432.156 47.9583 432.156 46.9375ZM433.031 33.3125L433.094 36.1875H425.75C423.833 36.1875 422.115 36.3646 420.594 36.7188C419.094 37.0521 417.823 37.5521 416.781 38.2188C415.74 38.8646 414.938 39.6458 414.375 40.5625C413.833 41.4792 413.562 42.5208 413.562 43.6875C413.562 44.8958 413.865 46 414.469 47C415.094 48 415.969 48.8021 417.094 49.4062C418.24 49.9896 419.594 50.2812 421.156 50.2812C423.24 50.2812 425.073 49.8958 426.656 49.125C428.26 48.3542 429.583 47.3438 430.625 46.0938C431.667 44.8438 432.365 43.4792 432.719 42L434.344 44.1562C434.073 45.1979 433.573 46.2708 432.844 47.375C432.135 48.4583 431.208 49.4792 430.062 50.4375C428.917 51.375 427.562 52.1458 426 52.75C424.458 53.3333 422.708 53.625 420.75 53.625C418.542 53.625 416.615 53.2083 414.969 52.375C413.344 51.5417 412.073 50.4062 411.156 48.9688C410.26 47.5104 409.812 45.8646 409.812 44.0312C409.812 42.3646 410.167 40.875 410.875 39.5625C411.583 38.2292 412.604 37.1042 413.938 36.1875C415.292 35.25 416.917 34.5417 418.812 34.0625C420.729 33.5625 422.875 33.3125 425.25 33.3125H433.031ZM450.062 19.1875V53H446.344V19.1875H450.062ZM445.688 9.40625C445.688 8.69792 445.906 8.10417 446.344 7.625C446.802 7.125 447.427 6.875 448.219 6.875C449.01 6.875 449.635 7.125 450.094 7.625C450.573 8.10417 450.812 8.69792 450.812 9.40625C450.812 10.0938 450.573 10.6875 450.094 11.1875C449.635 11.6667 449.01 11.9062 448.219 11.9062C447.427 11.9062 446.802 11.6667 446.344 11.1875C445.906 10.6875 445.688 10.0938 445.688 9.40625ZM464 26.4062V53H460.281V19.1875H463.844L464 26.4062ZM463.156 34L461.5 33.0625C461.625 31.0625 462.031 29.1875 462.719 27.4375C463.406 25.6875 464.333 24.1458 465.5 22.8125C466.688 21.4792 468.073 20.4375 469.656 19.6875C471.26 18.9375 473.031 18.5625 474.969 18.5625C476.656 18.5625 478.167 18.7917 479.5 19.25C480.833 19.7083 481.969 20.4375 482.906 21.4375C483.844 22.4375 484.552 23.7188 485.031 25.2812C485.531 26.8438 485.781 28.75 485.781 31V53H482.031V30.9688C482.031 28.6354 481.708 26.8125 481.062 25.5C480.417 24.1667 479.5 23.2188 478.312 22.6562C477.125 22.0938 475.719 21.8125 474.094 21.8125C472.302 21.8125 470.729 22.2083 469.375 23C468.042 23.7708 466.917 24.7812 466 26.0312C465.104 27.2604 464.417 28.5833 463.938 30C463.458 31.3958 463.198 32.7292 463.156 34ZM508.531 53.625C506.323 53.625 504.292 53.2188 502.438 52.4062C500.604 51.5938 499 50.4479 497.625 48.9688C496.271 47.4896 495.219 45.7396 494.469 43.7188C493.74 41.6771 493.375 39.4479 493.375 37.0312V35.6875C493.375 33.0833 493.76 30.7292 494.531 28.625C495.302 26.5208 496.365 24.7188 497.719 23.2188C499.073 21.7188 500.615 20.5729 502.344 19.7812C504.094 18.9688 505.927 18.5625 507.844 18.5625C509.99 18.5625 511.896 18.9479 513.562 19.7188C515.229 20.4688 516.625 21.5417 517.75 22.9375C518.896 24.3125 519.76 25.9479 520.344 27.8438C520.927 29.7188 521.219 31.7917 521.219 34.0625V36.3438H495.625V33.1562H517.5V32.7188C517.458 30.8229 517.073 29.0521 516.344 27.4062C515.635 25.7396 514.573 24.3854 513.156 23.3438C511.74 22.3021 509.969 21.7812 507.844 21.7812C506.26 21.7812 504.802 22.1146 503.469 22.7812C502.156 23.4479 501.021 24.4062 500.062 25.6562C499.125 26.8854 498.396 28.3542 497.875 30.0625C497.375 31.75 497.125 33.625 497.125 35.6875V37.0312C497.125 38.9062 497.396 40.6562 497.938 42.2812C498.5 43.8854 499.292 45.3021 500.312 46.5312C501.354 47.7604 502.583 48.7188 504 49.4062C505.417 50.0938 506.979 50.4375 508.688 50.4375C510.688 50.4375 512.458 50.0729 514 49.3438C515.542 48.5938 516.927 47.4167 518.156 45.8125L520.5 47.625C519.771 48.7083 518.854 49.7083 517.75 50.625C516.667 51.5417 515.365 52.2708 513.844 52.8125C512.323 53.3542 510.552 53.625 508.531 53.625ZM532.312 24.7812V53H528.594V19.1875H532.219L532.312 24.7812ZM544.281 18.9375L544.188 22.375C543.771 22.3125 543.365 22.2604 542.969 22.2188C542.573 22.1771 542.146 22.1562 541.688 22.1562C540.062 22.1562 538.635 22.4583 537.406 23.0625C536.198 23.6458 535.177 24.4688 534.344 25.5312C533.51 26.5729 532.875 27.8021 532.438 29.2188C532 30.6146 531.75 32.1146 531.688 33.7188L530.312 34.25C530.312 32.0417 530.542 29.9896 531 28.0938C531.458 26.1979 532.156 24.5417 533.094 23.125C534.052 21.6875 535.25 20.5729 536.688 19.7812C538.146 18.9688 539.854 18.5625 541.812 18.5625C542.292 18.5625 542.76 18.6042 543.219 18.6875C543.698 18.75 544.052 18.8333 544.281 18.9375ZM570.406 44.375C570.406 43.4583 570.177 42.5521 569.719 41.6562C569.26 40.7604 568.375 39.9375 567.062 39.1875C565.771 38.4375 563.865 37.8021 561.344 37.2812C559.469 36.8646 557.792 36.3958 556.312 35.875C554.854 35.3542 553.625 34.7292 552.625 34C551.625 33.2708 550.865 32.3958 550.344 31.375C549.823 30.3542 549.562 29.1458 549.562 27.75C549.562 26.5 549.833 25.3229 550.375 24.2188C550.938 23.0938 551.729 22.1146 552.75 21.2812C553.792 20.4271 555.042 19.7604 556.5 19.2812C557.979 18.8021 559.635 18.5625 561.469 18.5625C564.073 18.5625 566.302 19.0104 568.156 19.9062C570.031 20.7812 571.458 21.9792 572.438 23.5C573.438 25.0208 573.938 26.7396 573.938 28.6562H570.219C570.219 27.4896 569.875 26.3854 569.188 25.3438C568.521 24.3021 567.531 23.4479 566.219 22.7812C564.927 22.1146 563.344 21.7812 561.469 21.7812C559.531 21.7812 557.958 22.0729 556.75 22.6562C555.542 23.2396 554.656 23.9792 554.094 24.875C553.552 25.7708 553.281 26.6979 553.281 27.6562C553.281 28.4062 553.396 29.0938 553.625 29.7188C553.875 30.3229 554.312 30.8854 554.938 31.4062C555.583 31.9271 556.5 32.4167 557.688 32.875C558.875 33.3333 560.417 33.7812 562.312 34.2188C565.042 34.8229 567.271 35.5625 569 36.4375C570.75 37.2917 572.042 38.3542 572.875 39.625C573.708 40.875 574.125 42.3958 574.125 44.1875C574.125 45.5833 573.833 46.8646 573.25 48.0312C572.667 49.1771 571.823 50.1667 570.719 51C569.635 51.8333 568.323 52.4792 566.781 52.9375C565.26 53.3958 563.552 53.625 561.656 53.625C558.802 53.625 556.385 53.1562 554.406 52.2188C552.448 51.2604 550.958 50.0104 549.938 48.4688C548.938 46.9062 548.438 45.25 548.438 43.5H552.156C552.281 45.25 552.833 46.6354 553.812 47.6562C554.792 48.6562 555.99 49.3646 557.406 49.7812C558.844 50.1979 560.26 50.4062 561.656 50.4062C563.573 50.4062 565.177 50.125 566.469 49.5625C567.76 49 568.74 48.2604 569.406 47.3438C570.073 46.4271 570.406 45.4375 570.406 44.375Z" fill="#1F2937"/>
<path fill-rule="evenodd" clip-rule="evenodd" d="M45.1908 47.0978C46.1919 37.4753 46.192 27.7748 45.1908 18.1522C44.8337 14.7208 40.8774 12.9827 38.1087 15.0408L28.8755 21.9042C26.062 23.9956 22.6496 25.125 19.1439 25.125H10.5282C8.97487 25.125 7.71567 26.3842 7.71567 27.9375V37.3125C7.71567 38.8658 8.97486 40.125 10.5282 40.125H11.9328L10.0307 47.2236C9.81879 48.0146 10.2054 48.8436 10.9476 49.1897L19.2301 53.052C19.6822 53.2629 20.2044 53.2629 20.6565 53.0521C21.1086 52.8413 21.4442 52.4412 21.5733 51.9594L24.4144 41.3564C24.4446 41.2438 24.4626 41.1308 24.4693 41.0188C26.0386 41.5608 27.526 42.3426 28.8755 43.3458L38.1087 50.2092C40.8774 52.2673 44.8337 50.5292 45.1908 47.0978ZM41.8339 18.5015C42.8109 27.8918 42.8109 37.3582 41.8339 46.7486C41.7476 47.5779 40.7913 47.9981 40.1221 47.5006L30.8889 40.6372C27.4933 38.1131 23.3749 36.75 19.1439 36.75L11.0907 36.75L11.0907 28.5H19.1439C23.3749 28.5 27.4933 27.137 30.8889 24.6129L40.1221 17.7494C40.7913 17.252 41.7476 17.6721 41.8339 18.5015ZM21.2313 40.2591C20.5419 40.1702 19.8447 40.125 19.1439 40.125H15.4269L13.6572 46.7294L18.8338 49.1433L21.1544 40.4829C21.1751 40.4055 21.2009 40.3308 21.2313 40.2591Z" fill="#1F2937"/>
</svg>
