<svg width="1200" height="630" viewBox="0 0 1200 630" fill="none" xmlns="http://www.w3.org/2000/svg">
<rect width="1200" height="630" fill="#EEF6FF"/>
<path d="M123.375 540.812C126.542 540.812 129.5 540.229 132.25 539.062C135.042 537.854 137.333 536.083 139.125 533.75C140.958 531.375 142 528.479 142.25 525.062H149.375C149.167 529.354 147.854 533.188 145.438 536.562C143.062 539.896 139.938 542.521 136.062 544.438C132.229 546.312 128 547.25 123.375 547.25C118.667 547.25 114.5 546.396 110.875 544.688C107.292 542.979 104.292 540.604 101.875 537.562C99.4583 534.479 97.625 530.896 96.375 526.812C95.1667 522.688 94.5625 518.25 94.5625 513.5V510.875C94.5625 506.125 95.1667 501.708 96.375 497.625C97.625 493.5 99.4583 489.917 101.875 486.875C104.292 483.792 107.292 481.396 110.875 479.688C114.458 477.979 118.604 477.125 123.312 477.125C128.146 477.125 132.479 478.104 136.312 480.062C140.188 482.021 143.271 484.792 145.562 488.375C147.896 491.958 149.167 496.208 149.375 501.125H142.25C142.042 497.5 141.083 494.375 139.375 491.75C137.667 489.125 135.417 487.104 132.625 485.688C129.833 484.271 126.729 483.562 123.312 483.562C119.479 483.562 116.208 484.312 113.5 485.812C110.792 487.271 108.583 489.292 106.875 491.875C105.208 494.417 103.979 497.333 103.188 500.625C102.396 503.875 102 507.292 102 510.875V513.5C102 517.125 102.375 520.583 103.125 523.875C103.917 527.125 105.146 530.021 106.812 532.562C108.521 535.104 110.729 537.125 113.438 538.625C116.188 540.083 119.5 540.812 123.375 540.812ZM205.562 533.875V499C205.562 495.792 204.896 493.021 203.562 490.688C202.229 488.354 200.271 486.562 197.688 485.312C195.104 484.062 191.917 483.438 188.125 483.438C184.625 483.438 181.5 484.062 178.75 485.312C176.042 486.521 173.896 488.167 172.312 490.25C170.771 492.292 170 494.562 170 497.062L162.5 497C162.5 494.458 163.125 492 164.375 489.625C165.625 487.25 167.396 485.125 169.688 483.25C171.979 481.375 174.708 479.896 177.875 478.812C181.083 477.688 184.604 477.125 188.438 477.125C193.271 477.125 197.521 477.938 201.188 479.562C204.896 481.188 207.792 483.625 209.875 486.875C211.958 490.125 213 494.208 213 499.125V531.812C213 534.146 213.167 536.562 213.5 539.062C213.875 541.562 214.396 543.625 215.062 545.25V546H207.125C206.625 544.5 206.229 542.625 205.938 540.375C205.688 538.083 205.562 535.917 205.562 533.875ZM207.312 506.625L207.438 512.375H192.75C188.917 512.375 185.479 512.729 182.438 513.438C179.438 514.104 176.896 515.104 174.812 516.438C172.729 517.729 171.125 519.292 170 521.125C168.917 522.958 168.375 525.042 168.375 527.375C168.375 529.792 168.979 532 170.188 534C171.438 536 173.188 537.604 175.438 538.812C177.729 539.979 180.438 540.562 183.562 540.562C187.729 540.562 191.396 539.792 194.562 538.25C197.771 536.708 200.417 534.688 202.5 532.188C204.583 529.688 205.979 526.958 206.688 524L209.938 528.312C209.396 530.396 208.396 532.542 206.938 534.75C205.521 536.917 203.667 538.958 201.375 540.875C199.083 542.75 196.375 544.292 193.25 545.5C190.167 546.667 186.667 547.25 182.75 547.25C178.333 547.25 174.479 546.417 171.188 544.75C167.938 543.083 165.396 540.812 163.562 537.938C161.771 535.021 160.875 531.729 160.875 528.062C160.875 524.729 161.583 521.75 163 519.125C164.417 516.458 166.458 514.208 169.125 512.375C171.833 510.5 175.083 509.083 178.875 508.125C182.708 507.125 187 506.625 191.75 506.625H207.312ZM241.375 450V546H233.938V450H241.375ZM270.125 450V546H262.688V450H270.125ZM309.812 546H293.188V472.125C293.188 467.042 294.167 462.771 296.125 459.312C298.083 455.812 300.875 453.167 304.5 451.375C308.125 449.583 312.396 448.688 317.312 448.688C318.938 448.688 320.479 448.792 321.938 449C323.438 449.208 324.917 449.5 326.375 449.875L326.062 462.438C325.271 462.229 324.396 462.083 323.438 462C322.521 461.917 321.5 461.875 320.375 461.875C318.125 461.875 316.208 462.271 314.625 463.062C313.042 463.854 311.833 465.021 311 466.562C310.208 468.062 309.812 469.917 309.812 472.125V546ZM323.5 478.375V490.25H283V478.375H323.5ZM330.75 512.875V511.562C330.75 506.604 331.458 502.042 332.875 497.875C334.292 493.667 336.354 490.021 339.062 486.938C341.771 483.854 345.083 481.458 349 479.75C352.917 478 357.375 477.125 362.375 477.125C367.458 477.125 371.958 478 375.875 479.75C379.833 481.458 383.167 483.854 385.875 486.938C388.583 490.021 390.646 493.667 392.062 497.875C393.479 502.042 394.188 506.604 394.188 511.562V512.875C394.188 517.792 393.479 522.354 392.062 526.562C390.646 530.729 388.583 534.375 385.875 537.5C383.167 540.583 379.854 542.979 375.938 544.688C372.021 546.396 367.542 547.25 362.5 547.25C357.5 547.25 353.021 546.396 349.062 544.688C345.104 542.979 341.771 540.583 339.062 537.5C336.354 534.375 334.292 530.729 332.875 526.562C331.458 522.354 330.75 517.792 330.75 512.875ZM347.25 511.562V512.875C347.25 515.833 347.542 518.604 348.125 521.188C348.708 523.771 349.604 526.042 350.812 528C352.021 529.958 353.583 531.5 355.5 532.625C357.458 533.708 359.792 534.25 362.5 534.25C365.167 534.25 367.458 533.708 369.375 532.625C371.292 531.5 372.854 529.958 374.062 528C375.312 526.042 376.229 523.771 376.812 521.188C377.396 518.604 377.688 515.833 377.688 512.875V511.562C377.688 508.646 377.396 505.917 376.812 503.375C376.229 500.792 375.312 498.521 374.062 496.562C372.854 494.562 371.271 493 369.312 491.875C367.396 490.708 365.083 490.125 362.375 490.125C359.708 490.125 357.417 490.708 355.5 491.875C353.583 493 352.021 494.562 350.812 496.562C349.604 498.521 348.708 500.792 348.125 503.375C347.542 505.917 347.25 508.646 347.25 511.562ZM422.688 492.188V546H406.188V478.375H421.812L422.688 492.188ZM443.25 477.938L443 493.312C442.083 493.146 441.042 493.021 439.875 492.938C438.75 492.854 437.688 492.812 436.688 492.812C434.146 492.812 431.917 493.167 430 493.875C428.083 494.542 426.479 495.521 425.188 496.812C423.938 498.104 422.979 499.688 422.312 501.562C421.646 503.396 421.271 505.479 421.188 507.812L417.625 507.375C417.625 503.083 418.062 499.104 418.938 495.438C419.812 491.771 421.083 488.562 422.75 485.812C424.417 483.062 426.5 480.938 429 479.438C431.542 477.896 434.458 477.125 437.75 477.125C438.667 477.125 439.646 477.208 440.688 477.375C441.771 477.5 442.625 477.688 443.25 477.938ZM461.75 492.375V546H454.25V478.375H461.438L461.75 492.375ZM460.375 508L456.75 506.125C457 502.125 457.75 498.375 459 494.875C460.292 491.375 462.083 488.292 464.375 485.625C466.667 482.958 469.417 480.875 472.625 479.375C475.833 477.875 479.479 477.125 483.562 477.125C486.854 477.125 489.833 477.583 492.5 478.5C495.208 479.375 497.5 480.771 499.375 482.688C501.292 484.562 502.771 487.021 503.812 490.062C504.854 493.104 505.375 496.75 505.375 501V546H497.938V501.25C497.938 496.75 497.229 493.229 495.812 490.688C494.438 488.146 492.5 486.333 490 485.25C487.542 484.167 484.688 483.625 481.438 483.625C477.604 483.625 474.354 484.417 471.688 486C469.062 487.542 466.917 489.562 465.25 492.062C463.625 494.521 462.417 497.167 461.625 500C460.833 502.792 460.417 505.458 460.375 508ZM505.312 502.125L500.312 502.25C500.521 498.958 501.271 495.812 502.562 492.812C503.896 489.812 505.708 487.146 508 484.812C510.292 482.438 513.021 480.562 516.188 479.188C519.396 477.812 523 477.125 527 477.125C530.5 477.125 533.625 477.604 536.375 478.562C539.125 479.479 541.438 480.958 543.312 483C545.229 485 546.688 487.562 547.688 490.688C548.688 493.812 549.188 497.562 549.188 501.938V546H541.688V501.875C541.688 497.083 540.979 493.375 539.562 490.75C538.188 488.083 536.271 486.229 533.812 485.188C531.354 484.146 528.479 483.625 525.188 483.625C521.938 483.667 519.083 484.271 516.625 485.438C514.167 486.562 512.104 488.062 510.438 489.938C508.812 491.771 507.562 493.75 506.688 495.875C505.854 498 505.396 500.083 505.312 502.125ZM609.312 533.875V499C609.312 495.792 608.646 493.021 607.312 490.688C605.979 488.354 604.021 486.562 601.438 485.312C598.854 484.062 595.667 483.438 591.875 483.438C588.375 483.438 585.25 484.062 582.5 485.312C579.792 486.521 577.646 488.167 576.062 490.25C574.521 492.292 573.75 494.562 573.75 497.062L566.25 497C566.25 494.458 566.875 492 568.125 489.625C569.375 487.25 571.146 485.125 573.438 483.25C575.729 481.375 578.458 479.896 581.625 478.812C584.833 477.688 588.354 477.125 592.188 477.125C597.021 477.125 601.271 477.938 604.938 479.562C608.646 481.188 611.542 483.625 613.625 486.875C615.708 490.125 616.75 494.208 616.75 499.125V531.812C616.75 534.146 616.917 536.562 617.25 539.062C617.625 541.562 618.146 543.625 618.812 545.25V546H610.875C610.375 544.5 609.979 542.625 609.688 540.375C609.438 538.083 609.312 535.917 609.312 533.875ZM611.062 506.625L611.188 512.375H596.5C592.667 512.375 589.229 512.729 586.188 513.438C583.188 514.104 580.646 515.104 578.562 516.438C576.479 517.729 574.875 519.292 573.75 521.125C572.667 522.958 572.125 525.042 572.125 527.375C572.125 529.792 572.729 532 573.938 534C575.188 536 576.938 537.604 579.188 538.812C581.479 539.979 584.188 540.562 587.312 540.562C591.479 540.562 595.146 539.792 598.312 538.25C601.521 536.708 604.167 534.688 606.25 532.188C608.333 529.688 609.729 526.958 610.438 524L613.688 528.312C613.146 530.396 612.146 532.542 610.688 534.75C609.271 536.917 607.417 538.958 605.125 540.875C602.833 542.75 600.125 544.292 597 545.5C593.917 546.667 590.417 547.25 586.5 547.25C582.083 547.25 578.229 546.417 574.938 544.75C571.688 543.083 569.146 540.812 567.312 537.938C565.521 535.021 564.625 531.729 564.625 528.062C564.625 524.729 565.333 521.75 566.75 519.125C568.167 516.458 570.208 514.208 572.875 512.375C575.583 510.5 578.833 509.083 582.625 508.125C586.458 507.125 590.75 506.625 595.5 506.625H611.062ZM645.125 478.375V546H637.688V478.375H645.125ZM636.375 458.812C636.375 457.396 636.812 456.208 637.688 455.25C638.604 454.25 639.854 453.75 641.438 453.75C643.021 453.75 644.271 454.25 645.188 455.25C646.146 456.208 646.625 457.396 646.625 458.812C646.625 460.188 646.146 461.375 645.188 462.375C644.271 463.333 643.021 463.812 641.438 463.812C639.854 463.812 638.604 463.333 637.688 462.375C636.812 461.375 636.375 460.188 636.375 458.812ZM673 492.812V546H665.562V478.375H672.688L673 492.812ZM671.312 508L668 506.125C668.25 502.125 669.062 498.375 670.438 494.875C671.812 491.375 673.667 488.292 676 485.625C678.375 482.958 681.146 480.875 684.312 479.375C687.521 477.875 691.062 477.125 694.938 477.125C698.312 477.125 701.333 477.583 704 478.5C706.667 479.417 708.938 480.875 710.812 482.875C712.688 484.875 714.104 487.438 715.062 490.562C716.062 493.688 716.562 497.5 716.562 502V546H709.062V501.938C709.062 497.271 708.417 493.625 707.125 491C705.833 488.333 704 486.438 701.625 485.312C699.25 484.188 696.438 483.625 693.188 483.625C689.604 483.625 686.458 484.417 683.75 486C681.083 487.542 678.833 489.562 677 492.062C675.208 494.521 673.833 497.167 672.875 500C671.917 502.792 671.396 505.458 671.312 508ZM761.5 478.375V484.5H727.625V478.375H761.5ZM740.062 461H747.5V529.562C747.5 532.688 747.917 535.042 748.75 536.625C749.583 538.208 750.667 539.271 752 539.812C753.333 540.354 754.771 540.625 756.312 540.625C757.438 540.625 758.521 540.562 759.562 540.438C760.604 540.271 761.542 540.104 762.375 539.938L762.688 546.25C761.771 546.542 760.583 546.771 759.125 546.938C757.667 547.146 756.208 547.25 754.75 547.25C751.875 547.25 749.333 546.729 747.125 545.688C744.917 544.604 743.188 542.771 741.938 540.188C740.688 537.562 740.062 534 740.062 529.5V461ZM818.312 533.875V499C818.312 495.792 817.646 493.021 816.312 490.688C814.979 488.354 813.021 486.562 810.438 485.312C807.854 484.062 804.667 483.438 800.875 483.438C797.375 483.438 794.25 484.062 791.5 485.312C788.792 486.521 786.646 488.167 785.062 490.25C783.521 492.292 782.75 494.562 782.75 497.062L775.25 497C775.25 494.458 775.875 492 777.125 489.625C778.375 487.25 780.146 485.125 782.438 483.25C784.729 481.375 787.458 479.896 790.625 478.812C793.833 477.688 797.354 477.125 801.188 477.125C806.021 477.125 810.271 477.938 813.938 479.562C817.646 481.188 820.542 483.625 822.625 486.875C824.708 490.125 825.75 494.208 825.75 499.125V531.812C825.75 534.146 825.917 536.562 826.25 539.062C826.625 541.562 827.146 543.625 827.812 545.25V546H819.875C819.375 544.5 818.979 542.625 818.688 540.375C818.438 538.083 818.312 535.917 818.312 533.875ZM820.062 506.625L820.188 512.375H805.5C801.667 512.375 798.229 512.729 795.188 513.438C792.188 514.104 789.646 515.104 787.562 516.438C785.479 517.729 783.875 519.292 782.75 521.125C781.667 522.958 781.125 525.042 781.125 527.375C781.125 529.792 781.729 532 782.938 534C784.188 536 785.938 537.604 788.188 538.812C790.479 539.979 793.188 540.562 796.312 540.562C800.479 540.562 804.146 539.792 807.312 538.25C810.521 536.708 813.167 534.688 815.25 532.188C817.333 529.688 818.729 526.958 819.438 524L822.688 528.312C822.146 530.396 821.146 532.542 819.688 534.75C818.271 536.917 816.417 538.958 814.125 540.875C811.833 542.75 809.125 544.292 806 545.5C802.917 546.667 799.417 547.25 795.5 547.25C791.083 547.25 787.229 546.417 783.938 544.75C780.688 543.083 778.146 540.812 776.312 537.938C774.521 535.021 773.625 531.729 773.625 528.062C773.625 524.729 774.333 521.75 775.75 519.125C777.167 516.458 779.208 514.208 781.875 512.375C784.583 510.5 787.833 509.083 791.625 508.125C795.458 507.125 799.75 506.625 804.5 506.625H820.062ZM854.125 478.375V546H846.688V478.375H854.125ZM845.375 458.812C845.375 457.396 845.812 456.208 846.688 455.25C847.604 454.25 848.854 453.75 850.438 453.75C852.021 453.75 853.271 454.25 854.188 455.25C855.146 456.208 855.625 457.396 855.625 458.812C855.625 460.188 855.146 461.375 854.188 462.375C853.271 463.333 852.021 463.812 850.438 463.812C848.854 463.812 847.604 463.333 846.688 462.375C845.812 461.375 845.375 460.188 845.375 458.812ZM882 492.812V546H874.562V478.375H881.688L882 492.812ZM880.312 508L877 506.125C877.25 502.125 878.062 498.375 879.438 494.875C880.812 491.375 882.667 488.292 885 485.625C887.375 482.958 890.146 480.875 893.312 479.375C896.521 477.875 900.062 477.125 903.938 477.125C907.312 477.125 910.333 477.583 913 478.5C915.667 479.417 917.938 480.875 919.812 482.875C921.688 484.875 923.104 487.438 924.062 490.562C925.062 493.688 925.562 497.5 925.562 502V546H918.062V501.938C918.062 497.271 917.417 493.625 916.125 491C914.833 488.333 913 486.438 910.625 485.312C908.25 484.188 905.438 483.625 902.188 483.625C898.604 483.625 895.458 484.417 892.75 486C890.083 487.542 887.833 489.562 886 492.062C884.208 494.521 882.833 497.167 881.875 500C880.917 502.792 880.396 505.458 880.312 508ZM971.062 547.25C966.646 547.25 962.583 546.438 958.875 544.812C955.208 543.188 952 540.896 949.25 537.938C946.542 534.979 944.438 531.479 942.938 527.438C941.479 523.354 940.75 518.896 940.75 514.062V511.375C940.75 506.167 941.521 501.458 943.062 497.25C944.604 493.042 946.729 489.438 949.438 486.438C952.146 483.438 955.229 481.146 958.688 479.562C962.188 477.938 965.854 477.125 969.688 477.125C973.979 477.125 977.792 477.896 981.125 479.438C984.458 480.938 987.25 483.083 989.5 485.875C991.792 488.625 993.521 491.896 994.688 495.688C995.854 499.438 996.438 503.583 996.438 508.125V512.688H945.25V506.312H989V505.438C988.917 501.646 988.146 498.104 986.688 494.812C985.271 491.479 983.146 488.771 980.312 486.688C977.479 484.604 973.938 483.562 969.688 483.562C966.521 483.562 963.604 484.229 960.938 485.562C958.312 486.896 956.042 488.812 954.125 491.312C952.25 493.771 950.792 496.708 949.75 500.125C948.75 503.5 948.25 507.25 948.25 511.375V514.062C948.25 517.812 948.792 521.312 949.875 524.562C951 527.771 952.583 530.604 954.625 533.062C956.708 535.521 959.167 537.438 962 538.812C964.833 540.188 967.958 540.875 971.375 540.875C975.375 540.875 978.917 540.146 982 538.688C985.083 537.188 987.854 534.833 990.312 531.625L995 535.25C993.542 537.417 991.708 539.417 989.5 541.25C987.333 543.083 984.729 544.542 981.688 545.625C978.646 546.708 975.104 547.25 971.062 547.25ZM1018.62 489.562V546H1011.19V478.375H1018.44L1018.62 489.562ZM1042.56 477.875L1042.38 484.75C1041.54 484.625 1040.73 484.521 1039.94 484.438C1039.15 484.354 1038.29 484.312 1037.38 484.312C1034.12 484.312 1031.27 484.917 1028.81 486.125C1026.4 487.292 1024.35 488.938 1022.69 491.062C1021.02 493.146 1019.75 495.604 1018.88 498.438C1018 501.229 1017.5 504.229 1017.38 507.438L1014.62 508.5C1014.62 504.083 1015.08 499.979 1016 496.188C1016.92 492.396 1018.31 489.083 1020.19 486.25C1022.1 483.375 1024.5 481.146 1027.38 479.562C1030.29 477.938 1033.71 477.125 1037.62 477.125C1038.58 477.125 1039.52 477.208 1040.44 477.375C1041.4 477.5 1042.1 477.667 1042.56 477.875ZM1094.81 528.75C1094.81 526.917 1094.35 525.104 1093.44 523.312C1092.52 521.521 1090.75 519.875 1088.12 518.375C1085.54 516.875 1081.73 515.604 1076.69 514.562C1072.94 513.729 1069.58 512.792 1066.62 511.75C1063.71 510.708 1061.25 509.458 1059.25 508C1057.25 506.542 1055.73 504.792 1054.69 502.75C1053.65 500.708 1053.12 498.292 1053.12 495.5C1053.12 493 1053.67 490.646 1054.75 488.438C1055.88 486.188 1057.46 484.229 1059.5 482.562C1061.58 480.854 1064.08 479.521 1067 478.562C1069.96 477.604 1073.27 477.125 1076.94 477.125C1082.15 477.125 1086.6 478.021 1090.31 479.812C1094.06 481.562 1096.92 483.958 1098.88 487C1100.88 490.042 1101.88 493.479 1101.88 497.312H1094.44C1094.44 494.979 1093.75 492.771 1092.38 490.688C1091.04 488.604 1089.06 486.896 1086.44 485.562C1083.85 484.229 1080.69 483.562 1076.94 483.562C1073.06 483.562 1069.92 484.146 1067.5 485.312C1065.08 486.479 1063.31 487.958 1062.19 489.75C1061.1 491.542 1060.56 493.396 1060.56 495.312C1060.56 496.812 1060.79 498.188 1061.25 499.438C1061.75 500.646 1062.62 501.771 1063.88 502.812C1065.17 503.854 1067 504.833 1069.38 505.75C1071.75 506.667 1074.83 507.562 1078.62 508.438C1084.08 509.646 1088.54 511.125 1092 512.875C1095.5 514.583 1098.08 516.708 1099.75 519.25C1101.42 521.75 1102.25 524.792 1102.25 528.375C1102.25 531.167 1101.67 533.729 1100.5 536.062C1099.33 538.354 1097.65 540.333 1095.44 542C1093.27 543.667 1090.65 544.958 1087.56 545.875C1084.52 546.792 1081.1 547.25 1077.31 547.25C1071.6 547.25 1066.77 546.312 1062.81 544.438C1058.9 542.521 1055.92 540.021 1053.88 536.938C1051.88 533.812 1050.88 530.5 1050.88 527H1058.31C1058.56 530.5 1059.67 533.271 1061.62 535.312C1063.58 537.312 1065.98 538.729 1068.81 539.562C1071.69 540.396 1074.52 540.812 1077.31 540.812C1081.15 540.812 1084.35 540.25 1086.94 539.125C1089.52 538 1091.48 536.521 1092.81 534.688C1094.15 532.854 1094.81 530.875 1094.81 528.75Z" fill="#1F2937"/>
<path fill-rule="evenodd" clip-rule="evenodd" d="M711.166 290.82C717.284 232.016 717.284 172.735 711.166 113.93C708.984 92.9608 684.806 82.3387 667.886 94.9161L611.461 136.859C594.268 149.64 573.414 156.542 551.99 156.542H499.339C489.846 156.542 482.151 164.237 482.151 173.729V231.021C482.151 240.513 489.846 248.208 499.339 248.208H507.923L496.299 291.589C495.004 296.423 497.366 301.489 501.902 303.604L552.518 327.207C555.28 328.495 558.471 328.495 561.234 327.207C563.997 325.919 566.048 323.474 566.837 320.53L584.199 255.734C584.383 255.046 584.494 254.355 584.535 253.67C594.125 256.983 603.214 261.761 611.461 267.891L667.886 309.834C684.806 322.412 708.984 311.79 711.166 290.82ZM690.652 116.065C696.622 173.45 696.622 231.3 690.652 288.686C690.124 293.754 684.28 296.321 680.191 293.281L623.766 251.338C603.015 235.913 577.846 227.583 551.99 227.583L502.776 227.583L502.776 177.167H551.99C577.846 177.167 603.015 168.837 623.766 153.412L680.191 111.469C684.28 108.429 690.124 110.996 690.652 116.065ZM564.747 249.028C560.534 248.484 556.274 248.208 551.99 248.208H529.275L518.461 288.568L550.096 303.32L564.277 250.396C564.404 249.923 564.561 249.466 564.747 249.028Z" fill="#1F2937"/>
</svg>
